# xmcd CD database file generated by OrangeCD 5.2
#
# Track frame offsets:
#	150
#	10895
#	24237
#	42155
#	59682
#	77015
#	97672
#	111320
#	121985
#	135770
#	149640
#	163277
#	175102
#	188222
#	204100
#	220305
#	243872
#	260347
#	275095
#	288157
#
# Disc length: 4033 seconds
#
# Revision: 3
# Processed by: cddbd v1.5.1PL0 Copyright (c) Steve Scherf et al.
# Submitted via: OrangeCD 5.2
#
DISCID=170fbf14
DTITLE=Dana Gillespie - Hot Stuff
DYEAR=1995
DGENRE=Blues
TTITLE0=Lovin' Machine
TTITLE1=Pencil Thin Papa
TTITLE2=Easy Does It
TTITLE3=Meat On Their Bones
TTITLE4=Raise A Little Hell
TTITLE5=Empty Bed Blues
TTITLE6=Play With Your Poodle
TTITLE7=Big Fat Mamas Are Back In Style Again
TTITLE8=Too Many Drivers
TTITLE9=Sailor's Delight
TTITLE10=Built For Comfort
TTITLE11=Fat Meat Is Good Meat
TTITLE12=Hot Stuff
TTITLE13=Tall Skinny Papa
TTITLE14=Big Car
TTITLE15=Spoonful
TTITLE16=Diggin' My Potatoes
TTITLE17=Mainline Baby
TTITLE18=Pint Size Papa
TTITLE19=Horizontal Boogie
EXTD=
EXTT0=
EXTT1=
EXTT2=
EXTT3=
EXTT4=
EXTT5=
EXTT6=
EXTT7=
EXTT8=
EXTT9=
EXTT10=
EXTT11=
EXTT12=
EXTT13=
EXTT14=
EXTT15=
EXTT16=
EXTT17=
EXTT18=
EXTT19=
PLAYORDER=
